HIERARCHY
ROOT Hips
{
	OFFSET 49.218899 -6.070168 50.588501
	CHANNELS 6 Xposition Yposition Zposition Xrotation Yrotation Zrotation
	JOINT spine
	{
		OFFSET 0.000000 -0.507025 8.817051
		CHANNELS 3 Xrotation Yrotation Zrotation
		JOINT spine1
		{
			OFFSET 0.000000 -0.000002 10.776600
			CHANNELS 3 Xrotation Yrotation Zrotation
			JOINT spine2
			{
				OFFSET 0.000000 -0.000002 10.325897
				CHANNELS 3 Xrotation Yrotation Zrotation
				JOINT Neck
				{
					OFFSET 0.000000 -1.263954 26.511002
					CHANNELS 3 Xrotation Yrotation Zrotation
					JOINT Head
					{
						OFFSET 0.000000 -0.000001 8.009659
						CHANNELS 3 Xrotation Yrotation Zrotation
						End Site
						{
							OFFSET 0.000000 6.393857 19.387901
						}
					}
				}
				JOINT RightShoulder
				{
					OFFSET -4.347950 0.605421 11.151199
					CHANNELS 3 Xrotation Yrotation Zrotation
					JOINT RightArm
					{
						OFFSET 0.000000 -0.000002 14.625801
						CHANNELS 3 Xrotation Yrotation Zrotation
						JOINT RightArmRoll
						{
							OFFSET 0.000000 -0.000001 7.383400
							CHANNELS 3 Xrotation Yrotation Zrotation
							JOINT RightForeArm
							{
								OFFSET 0.000000 -0.000003 21.505196
								CHANNELS 3 Xrotation Yrotation Zrotation
								JOINT RightForeArmRoll
								{
									OFFSET 0.000000 -0.000001 8.285324
									CHANNELS 3 Xrotation Yrotation Zrotation
									JOINT RightHand
									{
										OFFSET 0.000000 -0.000003 16.626801
										CHANNELS 3 Xrotation Yrotation Zrotation
										End Site
										{
											OFFSET 0.000000 0.000000 0.100006
										}
									}
								}
							}
						}
					}
				}
				JOINT LeftShoulder
				{
					OFFSET 4.347950 0.605421 11.151199
					CHANNELS 3 Xrotation Yrotation Zrotation
					JOINT LeftArm
					{
						OFFSET 0.000000 -0.000002 14.625801
						CHANNELS 3 Xrotation Yrotation Zrotation
						JOINT LeftArmRoll
						{
							OFFSET 0.000000 -0.000001 7.383400
							CHANNELS 3 Xrotation Yrotation Zrotation
							JOINT LeftForeArm
							{
								OFFSET 0.000000 -0.000003 21.505196
								CHANNELS 3 Xrotation Yrotation Zrotation
								JOINT LeftForeArmRoll
								{
									OFFSET 0.000000 -0.000001 8.285324
									CHANNELS 3 Xrotation Yrotation Zrotation
									JOINT LeftHand
									{
										OFFSET 0.000000 -0.000003 16.626801
										CHANNELS 3 Xrotation Yrotation Zrotation
										End Site
										{
											OFFSET 0.000000 0.000000 0.100006
										}
									}
								}
							}
						}
					}
				}
			}
		}
	}
	JOINT RightUpLeg
	{
		OFFSET -7.815102 1.202170 -1.433090
		CHANNELS 3 Xrotation Yrotation Zrotation
		JOINT RightUpLegRoll
		{
			OFFSET 0.000000 -0.000003 19.495895
			CHANNELS 3 Xrotation Yrotation Zrotation
			JOINT RightLeg
			{
				OFFSET 0.000000 0.000004 -24.142700
				CHANNELS 3 Xrotation Yrotation Zrotation
				JOINT RightLegRoll
				{
					OFFSET 0.000000 -0.000004 24.221703
					CHANNELS 3 Xrotation Yrotation Zrotation
					JOINT RightFoot
					{
						OFFSET 0.000000 -0.000003 20.160500
						CHANNELS 3 Xrotation Yrotation Zrotation
						JOINT RightToeBase
						{
							OFFSET 0.000000 -0.000003 16.853203
							CHANNELS 3 Xrotation Yrotation Zrotation
							End Site
							{
								OFFSET 0.007145 0.940778 8.161873
							}
						}
					}
				}
			}
		}
	}
	JOINT LeftUpLeg
	{
		OFFSET 7.815102 1.202170 -1.433090
		CHANNELS 3 Xrotation Yrotation Zrotation
		JOINT LeftUpLegRoll
		{
			OFFSET 0.000000 -0.000003 19.496002
			CHANNELS 3 Xrotation Yrotation Zrotation
			JOINT LeftLeg
			{
				OFFSET 0.000000 -0.000004 24.142601
				CHANNELS 3 Xrotation Yrotation Zrotation
				JOINT LeftLegRoll
				{
					OFFSET 0.000000 -0.000004 24.445602
					CHANNELS 3 Xrotation Yrotation Zrotation
					JOINT LeftFoot
					{
						OFFSET 0.000000 -0.000003 19.936592
						CHANNELS 3 Xrotation Yrotation Zrotation
						JOINT LeftToeBase
						{
							OFFSET 0.000000 -0.000003 16.853195
							CHANNELS 3 Xrotation Yrotation Zrotation
							End Site
							{
								OFFSET -0.032013 0.940779 8.161865
							}
						}
					}
				}
			}
		}
	}
}
MOTION
Frames: 7
Frame Time: 0.041667
48.507397 -41.959522 100.708984 -3.305354 -0.106692 1.238108 -2.030301 -0.266225 -0.102006 -0.058276 -0.518008 -0.210662 1.586836 -0.520499 -0.204444 33.199070 5.152550 0.752947 -10.165618 1.293468 1.535869 -0.543206 -65.312414 -1.451413 -48.576975 -117.662945 -34.807730 0.000001 0.000004 0.000001 0.104406 -14.066383 -0.358844 0.000001 -0.000012 -3.026890 -5.000203 -7.998781 0.000171 -11.574191 62.028827 13.833523 -36.007828 117.606200 32.106848 0.000002 0.000004 0.000002 4.217395 13.533216 -0.176019 -0.000000 -0.000009 3.000001 -5.000224 7.998734 -0.000180 1.341070 -177.079812 0.734088 -179.999991 0.000005 -1.185005 169.939068 -1.552765 -0.649474 -0.000004 -0.000004 0.184490 70.772719 6.861761 2.103210 26.098223 -7.347082 0.959852 1.663605 176.462486 1.681434 -0.000005 -0.000004 -1.184120 -9.740195 1.927352 0.548533 -0.000002 0.000002 -0.197770 70.934322 -6.884102 -2.024413 26.090447 7.353622 -0.944600 
48.528297 -41.910419 100.688995 -3.307965 -0.106121 1.238916 -2.030559 -0.267720 -0.102231 -0.058791 -0.521843 -0.211163 1.586317 -0.524341 -0.204898 33.262273 5.198857 0.736957 -10.171215 1.267538 1.530649 -0.481888 -65.290031 -1.379360 -48.511589 -117.648438 -34.712439 0.000000 0.000004 0.000000 0.104404 -14.047181 -0.361997 0.000003 -0.000012 -3.026890 -5.000200 -7.998782 0.000171 -11.548944 62.074972 13.806583 -36.023777 117.543417 32.096855 0.000001 0.000004 0.000002 4.206282 13.533002 -0.175430 -0.000001 -0.000008 3.000000 -5.000222 7.998733 -0.000179 1.358657 -177.068816 0.755528 -179.999991 0.000005 -1.185005 169.984038 -1.582522 -0.649469 -0.000003 -0.000004 0.182517 70.738295 6.862265 2.103218 26.099025 -7.347077 0.961317 1.672517 176.460505 1.677916 -0.000005 -0.000005 -1.184120 -9.722667 1.929553 0.547929 -0.000002 0.000002 -0.196918 70.920586 -6.884145 -2.024974 26.091251 7.353618 -0.945716 
48.519695 -41.916615 100.692993 -3.310844 -0.105510 1.239536 -2.030801 -0.269318 -0.102457 -0.059274 -0.525913 -0.211667 1.585838 -0.528418 -0.205355 33.325968 5.247703 0.720036 -10.177705 1.239087 1.525060 -0.418791 -65.265716 -1.305086 -48.442806 -117.635091 -34.613145 -0.000001 0.000004 0.000002 0.104405 -14.027282 -0.365184 0.000003 -0.000010 -3.026900 -5.000199 -7.998782 0.000171 -11.523000 62.123098 13.778911 -36.041921 117.478967 32.088748 0.000002 0.000004 0.000002 4.195384 13.532786 -0.174887 -0.000000 -0.000008 3.000000 -5.000220 7.998732 -0.000179 1.378108 -177.055852 0.779400 -179.999991 0.000005 -1.185005 170.033379 -1.616250 -0.649985 -0.000003 -0.000004 0.180353 70.700408 6.862873 2.103159 26.099838 -7.347071 0.963003 1.682872 176.457527 1.673928 -0.000005 -0.000004 -1.184120 -9.702870 1.932082 0.547257 -0.000002 0.000002 -0.195976 70.905369 -6.884214 -2.025424 26.092158 7.353616 -0.947029 
48.497295 -41.948421 100.703987 -3.313905 -0.104871 1.240028 -2.031022 -0.270987 -0.102684 -0.059736 -0.530147 -0.212174 1.585370 -0.532660 -0.205812 33.390117 5.298313 0.702422 -10.184697 1.208872 1.519230 -0.354502 -65.240177 -1.229316 -48.372236 -117.622292 -34.511812 -0.000001 0.000004 0.000001 0.104404 -14.006982 -0.368393 0.000005 -0.000012 -3.026899 -5.000201 -7.998782 0.000171 -11.496483 62.172459 13.750648 -36.061336 117.413684 32.081600 0.000002 0.000004 0.000002 4.184633 13.532763 -0.174387 -0.000002 -0.000009 3.000000 -5.000219 7.998733 -0.000179 1.398873 -177.040894 0.804996 -179.999991 0.000005 -1.185005 170.085849 -1.650986 -0.649529 -0.000004 -0.000004 0.178054 70.660076 6.863485 2.103252 26.100844 -7.347072 0.964883 1.694256 176.455547 1.669646 -0.000005 -0.000004 -1.184120 -9.681494 1.934857 0.546539 -0.000002 0.000002 -0.194971 70.889085 -6.884307 -2.025848 26.093071 7.353622 -0.948495 
48.508698 -41.932816 100.701996 -3.317078 -0.104216 1.240450 -2.031254 -0.272696 -0.102911 -0.060186 -0.534475 -0.212682 1.584921 -0.536997 -0.206270 33.454567 5.349919 0.684336 -10.191979 1.177644 1.513255 -0.289591 -65.213922 -1.152755 -48.301134 -117.609342 -34.409909 0.000003 0.000004 0.000001 0.104406 -13.986382 -0.371617 0.000005 -0.000011 -3.026899 -5.000199 -7.998780 0.000170 -11.469608 62.222573 13.722001 -36.081820 117.347568 32.075426 -0.000000 0.000004 0.000001 4.173963 13.532644 -0.173898 -0.000003 -0.000008 3.000000 -5.000221 7.998732 -0.000179 1.420389 -177.026906 0.831530 -179.999991 0.000005 -1.185005 170.140012 -1.687718 -0.650300 -0.000004 -0.000004 0.175679 70.618487 6.864140 2.103231 26.101863 -7.347073 0.966852 1.706214 176.452569 1.665158 -0.000005 -0.000004 -1.184120 -9.659218 1.937765 0.545793 -0.000001 0.000002 -0.193930 70.872188 -6.884426 -2.026413 26.094183 7.353616 -0.950048 
48.505497 -41.946621 100.715988 -3.320275 -0.103558 1.240862 -2.031475 -0.274415 -0.103138 -0.060631 -0.538827 -0.213192 1.584471 -0.541357 -0.206729 33.519078 5.401737 0.666070 -10.199463 1.146171 1.507233 -0.224622 -65.187325 -1.076104 -48.228683 -117.597156 -34.306480 -0.000001 0.000004 0.000001 0.104405 -13.965781 -0.374841 0.000003 -0.000010 -3.026909 -5.000200 -7.998782 0.000171 -11.442581 62.272884 13.693181 -36.101330 117.282244 32.068049 0.000000 0.000004 0.000001 4.163315 13.532621 -0.173419 -0.000001 -0.000009 3.000001 -5.000221 7.998733 -0.000179 1.442095 -177.011948 0.858338 -179.999991 0.000005 -1.185005 170.194640 -1.725433 -0.650158 -0.000004 -0.000004 0.173284 70.576488 6.864805 2.103238 26.102867 -7.347074 0.968841 1.718320 176.449604 1.660629 -0.000005 -0.000004 -1.184120 -9.636713 1.940704 0.545038 -0.000002 0.000002 -0.192879 70.855174 -6.884540 -2.026885 26.095189 7.353619 -0.951618 
48.503998 -41.941219 100.712997 -3.323425 -0.102908 1.241294 -2.031694 -0.276115 -0.103365 -0.061084 -0.543132 -0.213701 1.584023 -0.545670 -0.207187 33.583501 5.453019 0.647848 -10.206656 1.115202 1.501277 -0.160154 -65.161111 -1.000058 -48.156187 -117.585012 -34.203006 0.000001 0.000004 0.000001 0.104406 -13.945179 -0.378063 0.000003 -0.000011 -3.026910 -5.000202 -7.998782 0.000170 -11.415592 62.322771 13.664389 -36.122125 117.216114 32.062192 0.000000 0.000004 0.000001 4.152626 13.532497 -0.172926 -0.000004 -0.000008 3.000000 -5.000222 7.998734 -0.000179 1.463425 -176.996989 0.884682 -179.999991 0.000005 -1.185005 170.248380 -1.761201 -0.649637 -0.000004 -0.000004 0.170928 70.535145 6.865494 2.103307 26.103882 -7.347073 0.970792 1.730129 176.446613 1.656176 -0.000005 -0.000005 -1.184120 -9.614667 1.943582 0.544294 -0.000002 0.000002 -0.191847 70.838385 -6.884673 -2.027345 26.096203 7.353618 -0.953149 
